<svg width="192" height="64" viewBox="0 0 192 64" fill="none" xmlns="http://www.w3.org/2000/svg">
<path d="M67.4102 28.4023C67.4102 27.6289 67.2109 27.0938 66.8125 26.7969C66.4141 26.4922 65.8281 26.3398 65.0547 26.3398C63.7344 26.3398 62.5078 26.6641 61.375 27.3125C60.25 27.9531 59.6875 28.6602 59.6875 29.4336C59.6875 29.9258 59.8984 30.3477 60.3203 30.6992C60.75 31.043 61.8516 31.4727 63.625 31.9883C65.4844 32.5273 66.8633 33.1211 67.7617 33.7695C68.668 34.4102 69.1211 35.1836 69.1211 36.0898C69.1211 37.5977 67.9727 38.9805 65.6758 40.2383C63.3789 41.4883 60.9922 42.1133 58.5156 42.1133C57.7109 42.1133 57.0664 41.9453 56.582 41.6094C56.0977 41.2734 55.8555 40.8594 55.8555 40.3672C55.8555 39.9766 55.9648 39.6133 56.1836 39.2773C56.4023 38.9414 56.6641 38.7734 56.9688 38.7734C57.1562 38.7734 57.3281 38.8047 57.4844 38.8672C58.3047 39.2188 59.0703 39.3945 59.7812 39.3945C61 39.3945 62.3672 39.0547 63.8828 38.375C65.4062 37.6875 66.168 37.0156 66.168 36.3594C66.168 36.0859 65.9766 35.8242 65.5938 35.5742C65.2188 35.3164 64.4492 34.9961 63.2852 34.6133C61.5898 34.0586 60.3125 33.6016 59.4531 33.2422C58.6016 32.8828 57.9531 32.4141 57.5078 31.8359C57.0703 31.25 56.8516 30.5469 56.8516 29.7266C56.8516 28.2656 57.7031 26.9062 59.4062 25.6484C61.1094 24.3906 63.1094 23.7617 65.4062 23.7617C66.7266 23.7617 67.7656 24.0234 68.5234 24.5469C69.2891 25.0703 69.6719 25.668 69.6719 26.3398C69.6719 27.7148 68.918 28.4023 67.4102 28.4023ZM82.0938 36.9688C82.0938 37.7812 81.4102 38.7539 80.043 39.8867C78.6758 41.0117 77.1328 41.5742 75.4141 41.5742C74.0938 41.5742 73.0547 41.1602 72.2969 40.332C71.5391 39.4961 71.1602 38.3359 71.1602 36.8516C71.1602 34.6641 71.9336 32.6133 73.4805 30.6992C75.0273 28.7852 76.6797 27.8281 78.4375 27.8281C79.3125 27.8281 80.0156 28.1055 80.5469 28.6602C81.0781 29.2148 81.3438 29.875 81.3438 30.6406C81.3438 32 80.6914 33.2969 79.3867 34.5312C78.082 35.7578 76.4102 36.6055 74.3711 37.0742C74.1367 37.1289 74.0195 37.2695 74.0195 37.4961C74.0195 37.8711 74.1836 38.2305 74.5117 38.5742C74.8477 38.9102 75.293 39.0781 75.8477 39.0781C77.418 39.0781 78.9766 38.2695 80.5234 36.6523C80.8203 36.3398 81.1094 36.1836 81.3906 36.1836C81.8594 36.1836 82.0938 36.4453 82.0938 36.9688ZM74.2305 34.8945C75.4648 34.6445 76.5508 34.1172 77.4883 33.3125C78.4336 32.5078 78.9062 31.7773 78.9062 31.1211C78.9062 30.8633 78.832 30.6484 78.6836 30.4766C78.543 30.2969 78.3594 30.207 78.1328 30.207C77.4531 30.207 76.6992 30.707 75.8711 31.707C75.043 32.707 74.4961 33.7695 74.2305 34.8945ZM86.9805 35.1875L87.1797 34.8125C88.125 32.9141 89.1406 31.375 90.2266 30.1953C91.3203 29.0078 92.3867 28.4141 93.4258 28.4141C94.2227 28.4141 94.8711 28.6328 95.3711 29.0703C95.8789 29.5078 96.1328 30.0273 96.1328 30.6289C96.1328 31.0039 96.0469 31.3281 95.875 31.6016C95.7031 31.8672 95.4648 32 95.1602 32C94.6758 32 94.2344 31.8008 93.8359 31.4023C93.5547 31.1445 93.332 31.0156 93.168 31.0156C92.582 31.0156 91.6016 31.9258 90.2266 33.7461C88.8516 35.5664 88.0234 37.6133 87.7422 39.8867C87.6562 40.543 87.4648 41 87.168 41.2578C86.8711 41.5234 86.4688 41.6562 85.9609 41.6562C85.4219 41.6562 85.0391 41.3516 84.8125 40.7422C84.5859 40.125 84.4727 39.1211 84.4727 37.7305C84.4727 37.1602 84.4883 36.3906 84.5195 35.4219C84.5508 34.5078 84.6406 33.3906 84.7891 32.0703C84.8281 31.7266 84.8555 31.457 84.8711 31.2617C84.9414 30.4961 85.0195 29.9727 85.1055 29.6914C85.1992 29.4023 85.4102 29.1328 85.7383 28.8828C86.0664 28.6328 86.4297 28.5078 86.8281 28.5078C87.25 28.5078 87.5703 28.6289 87.7891 28.8711C88.0078 29.1133 88.1172 29.3789 88.1172 29.668C88.1172 30.0352 87.9414 30.7969 87.5898 31.9531C87.4648 32.3516 87.3594 32.8281 87.2734 33.3828L86.9805 35.1875ZM102.965 23.5859C102.965 24.1406 102.715 24.6289 102.215 25.0508C101.715 25.4648 101.281 25.6719 100.914 25.6719C100.445 25.6719 100.027 25.4766 99.6602 25.0859C99.3008 24.6953 99.1211 24.3047 99.1211 23.9141C99.1211 23.3516 99.3008 22.8984 99.6602 22.5547C100.02 22.2031 100.535 22.0273 101.207 22.0273C101.73 22.0273 102.152 22.1836 102.473 22.4961C102.801 22.8008 102.965 23.1641 102.965 23.5859ZM97.3047 33.2188V33.2305C97.5547 31.8086 97.6797 30.9961 97.6797 30.793C97.6797 30.2148 97.8047 29.7305 98.0547 29.3398C98.3125 28.9492 98.668 28.7539 99.1211 28.7539C99.6523 28.7539 100.066 28.8789 100.363 29.1289C100.66 29.3789 100.809 29.6602 100.809 29.9727C100.809 30.2852 100.664 30.9297 100.375 31.9062L100.305 32.1641C99.875 33.6719 99.6172 34.9023 99.5312 35.8555C99.4453 36.8086 99.4023 37.5781 99.4023 38.1641C99.4023 38.6406 99.4844 39.2773 99.6484 40.0742C99.6719 40.2148 99.6836 40.332 99.6836 40.4258C99.6836 40.6055 99.5117 40.8477 99.168 41.1523C98.832 41.457 98.4688 41.6094 98.0781 41.6094C97.0469 41.6094 96.5312 40.8281 96.5312 39.2656C96.5312 37.9375 96.7188 36.3203 97.0938 34.4141C97.1719 33.9922 97.2422 33.5938 97.3047 33.2188ZM113.852 36.9688C113.852 37.7812 113.168 38.7539 111.801 39.8867C110.434 41.0117 108.891 41.5742 107.172 41.5742C105.852 41.5742 104.812 41.1602 104.055 40.332C103.297 39.4961 102.918 38.3359 102.918 36.8516C102.918 34.6641 103.691 32.6133 105.238 30.6992C106.785 28.7852 108.438 27.8281 110.195 27.8281C111.07 27.8281 111.773 28.1055 112.305 28.6602C112.836 29.2148 113.102 29.875 113.102 30.6406C113.102 32 112.449 33.2969 111.145 34.5312C109.84 35.7578 108.168 36.6055 106.129 37.0742C105.895 37.1289 105.777 37.2695 105.777 37.4961C105.777 37.8711 105.941 38.2305 106.27 38.5742C106.605 38.9102 107.051 39.0781 107.605 39.0781C109.176 39.0781 110.734 38.2695 112.281 36.6523C112.578 36.3398 112.867 36.1836 113.148 36.1836C113.617 36.1836 113.852 36.4453 113.852 36.9688ZM105.988 34.8945C107.223 34.6445 108.309 34.1172 109.246 33.3125C110.191 32.5078 110.664 31.7773 110.664 31.1211C110.664 30.8633 110.59 30.6484 110.441 30.4766C110.301 30.2969 110.117 30.207 109.891 30.207C109.211 30.207 108.457 30.707 107.629 31.707C106.801 32.707 106.254 33.7695 105.988 34.8945ZM125.277 33.6289C125.199 33.7539 124.605 34.9883 123.496 37.332C123.402 37.5352 123.348 37.6484 123.332 37.6719C122.004 40.3516 120.98 41.6914 120.262 41.6914C119.137 41.6914 118.152 40.2969 117.309 37.5078C116.465 34.7109 116.043 32.3828 116.043 30.5234C116.043 29.8516 116.199 29.3086 116.512 28.8945C116.832 28.4805 117.285 28.2734 117.871 28.2734C118.238 28.2734 118.562 28.4336 118.844 28.7539C119.133 29.0664 119.277 29.3672 119.277 29.6562L119.172 31.2031C119.141 31.6719 119.125 32.1406 119.125 32.6094C119.125 33.4375 119.297 34.5391 119.641 35.9141C119.984 37.2812 120.227 37.9648 120.367 37.9648C120.469 37.9648 120.863 37.2695 121.551 35.8789C122.449 34.0586 123.176 32.6836 123.73 31.7539H123.719C124.5 30.2695 125.191 29.2969 125.793 28.8359C126.301 28.8906 126.707 29.043 127.012 29.293C127.324 29.543 127.48 29.8359 127.48 30.1719C127.48 30.4375 127.469 30.6328 127.445 30.7578C127.414 30.8906 127.398 31.0117 127.398 31.1211C127.398 33.4805 128.051 35.6016 129.355 37.4844C129.441 37.5703 129.516 37.5195 129.578 37.332C129.648 37.1445 129.812 36.5664 130.07 35.5977C130.547 33.8008 131.086 32.2383 131.688 30.9102C132.289 29.5742 132.781 28.7461 133.164 28.4258C133.547 28.1055 133.98 27.9453 134.465 27.9453C134.77 27.9453 135.031 28.0625 135.25 28.2969C135.477 28.5234 135.59 28.7734 135.59 29.0469C135.59 29.375 135.52 29.6328 135.379 29.8203C134.371 31.1641 133.477 33.0234 132.695 35.3984C131.891 37.8594 131.332 39.3633 131.02 39.9102C130.707 40.457 130.441 40.7305 130.223 40.7305C129.496 40.7305 128.898 40.5977 128.43 40.332C127.969 40.0586 127.52 39.5547 127.082 38.8203C126.652 38.0859 126.262 37.1602 125.91 36.043C125.559 34.9258 125.348 34.1211 125.277 33.6289ZM148 35.0586C147.477 36.8867 146.48 38.4297 145.012 39.6875C143.551 40.9375 142.09 41.5625 140.629 41.5625C139.473 41.5625 138.52 41.1406 137.77 40.2969C137.02 39.4453 136.645 38.4023 136.645 37.168C136.645 35.1523 137.332 33.168 138.707 31.2148C140.082 29.2617 141.75 28.2852 143.711 28.2852C145.047 28.2852 146.129 28.7812 146.957 29.7734C147.785 30.7578 148.199 31.9336 148.199 33.3008C148.199 33.8945 148.133 34.4766 148 35.0469V35.0586ZM141.906 31.3555C141.359 31.8398 140.824 32.6133 140.301 33.6758C139.777 34.7383 139.516 35.8047 139.516 36.875C139.516 37.5234 139.633 38.0586 139.867 38.4805C140.109 38.9023 140.426 39.1133 140.816 39.1133C141.785 39.1133 142.793 38.5391 143.84 37.3906C144.887 36.2422 145.41 34.9531 145.41 33.5234C145.41 32.7188 145.238 32.0586 144.895 31.543C144.559 31.0195 144.086 30.7578 143.477 30.7578C142.898 30.7578 142.379 30.957 141.918 31.3555H141.906ZM153.379 35.1875L153.578 34.8125C154.523 32.9141 155.539 31.375 156.625 30.1953C157.719 29.0078 158.785 28.4141 159.824 28.4141C160.621 28.4141 161.27 28.6328 161.77 29.0703C162.277 29.5078 162.531 30.0273 162.531 30.6289C162.531 31.0039 162.445 31.3281 162.273 31.6016C162.102 31.8672 161.863 32 161.559 32C161.074 32 160.633 31.8008 160.234 31.4023C159.953 31.1445 159.73 31.0156 159.566 31.0156C158.98 31.0156 158 31.9258 156.625 33.7461C155.25 35.5664 154.422 37.6133 154.141 39.8867C154.055 40.543 153.863 41 153.566 41.2578C153.27 41.5234 152.867 41.6562 152.359 41.6562C151.82 41.6562 151.438 41.3516 151.211 40.7422C150.984 40.125 150.871 39.1211 150.871 37.7305C150.871 37.1602 150.887 36.3906 150.918 35.4219C150.949 34.5078 151.039 33.3906 151.188 32.0703C151.227 31.7266 151.254 31.457 151.27 31.2617C151.34 30.4961 151.418 29.9727 151.504 29.6914C151.598 29.4023 151.809 29.1328 152.137 28.8828C152.465 28.6328 152.828 28.5078 153.227 28.5078C153.648 28.5078 153.969 28.6289 154.188 28.8711C154.406 29.1133 154.516 29.3789 154.516 29.668C154.516 30.0352 154.34 30.7969 153.988 31.9531C153.863 32.3516 153.758 32.8281 153.672 33.3828L153.379 35.1875ZM173.863 31.2148H173.875C173.875 31.2148 173.867 31.2227 173.852 31.2383C173.398 31.4883 173.031 31.707 172.75 31.8945C172.227 32.2461 171.699 32.625 171.168 33.0312C170.559 33.5 170.102 33.8945 169.797 34.2148C169.539 34.4805 169.41 34.6758 169.41 34.8008C169.41 34.9414 169.867 35.4922 170.781 36.4531C171.695 37.4062 172.418 38.0898 172.949 38.5039C173.488 38.918 174.02 39.125 174.543 39.125L175.059 39.1133C175.246 39.1133 175.395 39.1719 175.504 39.2891C175.621 39.3984 175.68 39.5664 175.68 39.793C175.68 40.1133 175.48 40.4844 175.082 40.9062C174.684 41.3281 174 41.5391 173.031 41.5391C172.461 41.5391 171.883 41.332 171.297 40.918C170.711 40.4961 169.812 39.5508 168.602 38.082C167.633 36.9023 167.105 36.3125 167.02 36.3125C166.965 36.3125 166.801 36.4531 166.527 36.7344C166.254 37.0156 166.074 37.2305 165.988 37.3789V37.3906C165.855 38.0391 165.789 38.8867 165.789 39.9336C165.789 40.457 165.633 40.8828 165.32 41.2109C165.016 41.5391 164.641 41.7031 164.195 41.7031C163.734 41.7031 163.375 41.5703 163.117 41.3047C162.859 41.0469 162.73 40.7852 162.73 40.5195C162.73 40.2383 162.828 39.6211 163.023 38.668C163.398 36.8164 163.715 34.3594 163.973 31.2969C164.223 28.8516 164.441 26.9453 164.629 25.5781C164.816 24.2031 164.984 23.3047 165.133 22.8828C165.281 22.4531 165.512 22.1133 165.824 21.8633C166.137 21.6055 166.473 21.4766 166.832 21.4766C167.176 21.4766 167.449 21.6211 167.652 21.9102C167.863 22.1914 167.969 22.5352 167.969 22.9414C167.969 23.4492 167.641 25.4336 166.984 28.8945L166.703 30.4297H166.715C166.371 32.6875 166.195 33.9922 166.188 34.3438L169.785 31.0859C171.621 29.3125 172.969 28.4258 173.828 28.4258C174.656 28.4258 175.07 28.7578 175.07 29.4219C175.07 30.25 174.668 30.8477 173.863 31.2148ZM182.664 38.0234C182.633 37.6016 181.961 37.0859 180.648 36.4766C179.039 35.7031 178.012 35.0391 177.566 34.4844C177.121 33.9219 176.898 33.3125 176.898 32.6562C176.898 31.2734 177.672 30.0664 179.219 29.0352C180.773 27.9961 182.223 27.4766 183.566 27.4766C184.887 27.4766 185.547 28.0508 185.547 29.1992C185.547 29.5039 185.395 29.7773 185.09 30.0195C184.793 30.2617 184.539 30.3828 184.328 30.3828C184.242 30.3828 184.09 30.3281 183.871 30.2188C183.652 30.1094 183.484 30.0547 183.367 30.0547C182.672 30.0547 181.906 30.2891 181.07 30.7578C180.234 31.2266 179.816 31.7734 179.816 32.3984C179.816 32.7031 179.965 33 180.262 33.2891C180.559 33.5703 181.164 33.9258 182.078 34.3555C183.43 34.9961 184.32 35.5742 184.75 36.0898C185.18 36.6055 185.395 37.1758 185.395 37.8008C185.395 38.9414 184.621 39.8945 183.074 40.6602C181.535 41.418 179.805 41.7969 177.883 41.7969C176.469 41.7969 175.762 41.2852 175.762 40.2617C175.762 39.8867 175.91 39.5664 176.207 39.3008C176.504 39.0352 176.836 38.9023 177.203 38.9023C177.352 38.9023 177.582 38.957 177.895 39.0664C178.207 39.1836 178.496 39.2422 178.762 39.2422C179.496 39.2422 180.266 39.125 181.07 38.8906C181.875 38.6562 182.406 38.3672 182.664 38.0234Z" fill="white"/>
<g clip-path="url(#clip0_79_3)">
<path d="M43.9966 32.0301C43.3807 31.8016 42.6833 31.9841 42.263 32.4937C39.9056 35.3686 36.4279 37.0194 32.7151 37.0194C25.9082 37.0194 20.3751 31.4825 20.3751 24.6781C20.3751 21.253 21.7554 18.0642 24.2665 15.7015C24.7472 15.2458 24.8851 14.5392 24.6132 13.9377C24.3414 13.3388 23.7175 12.9711 23.0582 13.0394C12.7618 14.0388 5 22.6017 5 32.9547C5 43.9893 13.9779 52.9672 25.0125 52.9672C35.917 52.9672 44.6979 44.4227 45 33.5142C45.0184 32.8549 44.6152 32.2586 43.9966 32.0301Z" fill="#F8E55B"/>
</g>
<defs>
<clipPath id="clip0_79_3">
<rect width="40" height="40" fill="white" transform="translate(5 13)"/>
</clipPath>
</defs>
</svg>
