<svg width="181" height="40" viewBox="0 0 181 40" fill="none" xmlns="http://www.w3.org/2000/svg">
<path d="M62.5668 15.3957C62.5668 14.6211 62.3671 14.085 61.9676 13.7877C61.5682 13.4825 60.9808 13.3299 60.2054 13.3299C58.8818 13.3299 57.6521 13.6547 56.5165 14.3041C55.3887 14.9458 54.8247 15.654 54.8247 16.4286C54.8247 16.9216 55.0362 17.3442 55.4592 17.6963C55.8899 18.0406 56.9942 18.471 58.7721 18.9874C60.6362 19.5274 62.0185 20.1221 62.9192 20.7715C63.8278 21.4132 64.282 22.1879 64.282 23.0956C64.282 24.6058 63.1307 25.9908 60.8281 27.2507C58.5254 28.5027 56.1327 29.1287 53.6499 29.1287C52.8432 29.1287 52.1971 28.9605 51.7115 28.624C51.2259 28.2875 50.9831 27.8728 50.9831 27.3798C50.9831 26.9885 51.0928 26.6247 51.312 26.2882C51.5313 25.9517 51.7937 25.7835 52.0992 25.7835C52.2871 25.7835 52.4595 25.8148 52.6161 25.8774C53.4385 26.2295 54.206 26.4056 54.9187 26.4056C56.1405 26.4056 57.5112 26.0652 59.0306 25.3844C60.5579 24.6958 61.3215 24.0229 61.3215 23.3655C61.3215 23.0917 61.1296 22.8295 60.7458 22.5791C60.3699 22.3209 59.5984 22.0001 58.4314 21.6167C56.7319 21.0611 55.4513 20.6033 54.5898 20.2434C53.7361 19.8834 53.086 19.4139 52.6396 18.8348C52.201 18.248 51.9817 17.5437 51.9817 16.7221C51.9817 15.2588 52.8354 13.8972 54.5428 12.6374C56.2502 11.3776 58.2552 10.7477 60.5579 10.7477C61.8815 10.7477 62.9231 11.0098 63.6829 11.5341C64.4504 12.0584 64.8342 12.657 64.8342 13.3299C64.8342 14.7071 64.0784 15.3957 62.5668 15.3957Z" fill="#313158"/>
<path d="M77.2872 23.9759C77.2872 24.7897 76.6019 25.7639 75.2313 26.8986C73.8607 28.0254 72.3138 28.5888 70.5908 28.5888C69.2672 28.5888 68.2255 28.174 67.4658 27.3446C66.7061 26.5073 66.3262 25.3453 66.3262 23.8585C66.3262 21.6675 67.1016 19.6134 68.6523 17.6963C70.2031 15.7792 71.8596 14.8206 73.6218 14.8206C74.499 14.8206 75.2039 15.0984 75.7365 15.654C76.2691 16.2095 76.5354 16.8708 76.5354 17.6376C76.5354 18.9992 75.8814 20.2981 74.5734 21.5345C73.2654 22.763 71.5894 23.612 69.5452 24.0815C69.3102 24.1363 69.1927 24.2772 69.1927 24.5041C69.1927 24.8797 69.3572 25.2396 69.6862 25.5839C70.023 25.9204 70.4694 26.0887 71.0255 26.0887C72.5997 26.0887 74.1622 25.2788 75.713 23.659C76.0106 23.346 76.3004 23.1895 76.5823 23.1895C77.0523 23.1895 77.2872 23.4516 77.2872 23.9759ZM69.4042 21.8984C70.6417 21.648 71.7304 21.1198 72.6702 20.3138C73.6179 19.5078 74.0917 18.7762 74.0917 18.1189C74.0917 17.8606 74.0173 17.6454 73.8685 17.4733C73.7275 17.2933 73.5435 17.2033 73.3164 17.2033C72.635 17.2033 71.8792 17.7041 71.049 18.7057C70.2188 19.7073 69.6705 20.7715 69.4042 21.8984Z" fill="#313158"/>
<path d="M82.1862 22.1918L82.3859 21.8162C83.3336 19.9147 84.3518 18.3732 85.4405 17.1916C86.5369 16.0022 87.606 15.4075 88.6477 15.4075C89.4466 15.4075 90.0966 15.6266 90.5979 16.0648C91.107 16.503 91.3615 17.0234 91.3615 17.6259C91.3615 18.0015 91.2754 18.3262 91.1031 18.6001C90.9308 18.8661 90.6919 18.9992 90.3864 18.9992C89.9008 18.9992 89.4583 18.7996 89.0589 18.4006C88.7769 18.1423 88.5537 18.0132 88.3892 18.0132C87.8018 18.0132 86.8189 18.9248 85.4405 20.7481C84.062 22.5713 83.2318 24.6215 82.9498 26.8986C82.8637 27.5559 82.6718 28.0136 82.3742 28.2718C82.0766 28.5379 81.6732 28.6709 81.1641 28.6709C80.6237 28.6709 80.2399 28.3657 80.0128 27.7554C79.7857 27.1372 79.6721 26.1317 79.6721 24.7388C79.6721 24.1676 79.6878 23.3968 79.7191 22.4265C79.7504 21.511 79.8405 20.392 79.9893 19.0696C80.0285 18.7253 80.0559 18.4553 80.0715 18.2597C80.142 17.4929 80.2204 16.9686 80.3065 16.6869C80.4005 16.3973 80.612 16.1274 80.9409 15.877C81.2699 15.6266 81.6341 15.5014 82.0335 15.5014C82.4564 15.5014 82.7775 15.6227 82.9968 15.8652C83.2161 16.1078 83.3258 16.3739 83.3258 16.6634C83.3258 17.0312 83.1496 17.7941 82.7971 18.9522C82.6718 19.3513 82.5661 19.8286 82.4799 20.3842L82.1862 22.1918Z" fill="#313158"/>
<path d="M98.2107 10.5716C98.2107 11.1272 97.9601 11.6162 97.4588 12.0388C96.9576 12.4535 96.5229 12.6609 96.1548 12.6609C95.6849 12.6609 95.2658 12.4653 94.8977 12.074C94.5375 11.6828 94.3573 11.2915 94.3573 10.9003C94.3573 10.3369 94.5375 9.883 94.8977 9.5387C95.258 9.18657 95.7749 9.01051 96.4485 9.01051C96.9732 9.01051 97.3962 9.16701 97.7173 9.48001C98.0462 9.78519 98.2107 10.1491 98.2107 10.5716ZM92.5363 20.2199V20.2316C92.787 18.8075 92.9123 17.9937 92.9123 17.7902C92.9123 17.2112 93.0376 16.726 93.2882 16.3347C93.5467 15.9435 93.903 15.7479 94.3573 15.7479C94.8899 15.7479 95.305 15.8731 95.6026 16.1235C95.9002 16.3739 96.049 16.6556 96.049 16.9686C96.049 17.2816 95.9042 17.9271 95.6144 18.9053L95.5439 19.1635C95.1131 20.6737 94.8547 21.9062 94.7685 22.8608C94.6823 23.8155 94.6393 24.5863 94.6393 25.1731C94.6393 25.6505 94.7215 26.2882 94.886 27.0864C94.9095 27.2272 94.9212 27.3446 94.9212 27.4385C94.9212 27.6185 94.7489 27.861 94.4043 28.1662C94.0675 28.4714 93.7033 28.624 93.3117 28.624C92.2779 28.624 91.761 27.8415 91.761 26.2765C91.761 24.9462 91.9489 23.3264 92.3249 21.4171C92.4032 20.9946 92.4737 20.5955 92.5363 20.2199Z" fill="#313158"/>
<path d="M109.125 23.9759C109.125 24.7897 108.439 25.7639 107.069 26.8986C105.698 28.0254 104.151 28.5888 102.428 28.5888C101.105 28.5888 100.063 28.174 99.3033 27.3446C98.5436 26.5073 98.1637 25.3453 98.1637 23.8585C98.1637 21.6675 98.9391 19.6134 100.49 17.6963C102.041 15.7792 103.697 14.8206 105.459 14.8206C106.337 14.8206 107.041 15.0984 107.574 15.654C108.107 16.2095 108.373 16.8708 108.373 17.6376C108.373 18.9992 107.719 20.2981 106.411 21.5345C105.103 22.763 103.427 23.612 101.383 24.0815C101.148 24.1363 101.03 24.2772 101.03 24.5041C101.03 24.8797 101.195 25.2396 101.524 25.5839C101.86 25.9204 102.307 26.0887 102.863 26.0887C104.437 26.0887 106 25.2788 107.55 23.659C107.848 23.346 108.138 23.1895 108.42 23.1895C108.89 23.1895 109.125 23.4516 109.125 23.9759ZM101.242 21.8984C102.479 21.648 103.568 21.1198 104.508 20.3138C105.455 19.5078 105.929 18.7762 105.929 18.1189C105.929 17.8606 105.855 17.6454 105.706 17.4733C105.565 17.2933 105.381 17.2033 105.154 17.2033C104.472 17.2033 103.717 17.7041 102.886 18.7057C102.056 19.7073 101.508 20.7715 101.242 21.8984Z" fill="#313158"/>
<path d="M120.579 20.6307C120.501 20.7559 119.906 21.9923 118.793 24.3398C118.7 24.5432 118.645 24.6567 118.629 24.6802C117.298 27.3641 116.272 28.7061 115.551 28.7061C114.423 28.7061 113.436 27.3094 112.59 24.5158C111.745 21.7145 111.322 19.3826 111.322 17.5202C111.322 16.8473 111.478 16.3034 111.792 15.8887C112.113 15.474 112.567 15.2666 113.154 15.2666C113.522 15.2666 113.848 15.427 114.129 15.7479C114.419 16.0609 114.564 16.3621 114.564 16.6517L114.458 18.201C114.427 18.6705 114.411 19.14 114.411 19.6095C114.411 20.439 114.584 21.5423 114.928 22.9195C115.273 24.2889 115.516 24.9736 115.657 24.9736C115.759 24.9736 116.154 24.2772 116.843 22.8843C117.744 21.0611 118.472 19.6839 119.028 18.7527H119.017C119.8 17.2659 120.493 16.2917 121.096 15.83C121.605 15.8848 122.012 16.0374 122.318 16.2878C122.631 16.5382 122.788 16.8316 122.788 17.1681C122.788 17.4342 122.776 17.6298 122.753 17.755C122.721 17.888 122.706 18.0093 122.706 18.1189C122.706 20.482 123.36 22.6065 124.668 24.4924C124.754 24.5784 124.828 24.5276 124.891 24.3398C124.961 24.152 125.126 23.5729 125.384 22.6026C125.862 20.8028 126.402 19.2378 127.005 17.9076C127.609 16.5695 128.102 15.74 128.486 15.4192C128.869 15.0984 129.304 14.938 129.79 14.938C130.095 14.938 130.358 15.0554 130.577 15.2901C130.804 15.517 130.918 15.7674 130.918 16.0413C130.918 16.37 130.847 16.6282 130.706 16.816C129.696 18.1619 128.799 20.0243 128.016 22.4031C127.209 24.868 126.649 26.3743 126.336 26.922C126.023 27.4698 125.756 27.7437 125.537 27.7437C124.809 27.7437 124.209 27.6106 123.739 27.3446C123.277 27.0707 122.827 26.566 122.388 25.8304C121.958 25.0949 121.566 24.1676 121.214 23.0486C120.861 21.9297 120.65 21.1237 120.579 20.6307Z" fill="#313158"/>
<path d="M143.359 22.0627C142.834 23.8937 141.836 25.4392 140.363 26.699C138.898 27.951 137.434 28.577 135.969 28.577C134.81 28.577 133.855 28.1545 133.103 27.3094C132.351 26.4564 131.975 25.4118 131.975 24.1754C131.975 22.1566 132.664 20.169 134.043 18.2128C135.421 16.2565 137.093 15.2784 139.059 15.2784C140.398 15.2784 141.483 15.7753 142.313 16.769C143.144 17.755 143.559 18.9327 143.559 20.302C143.559 20.8967 143.492 21.4797 143.359 22.0509V22.0627ZM137.25 18.3536C136.702 18.8388 136.165 19.6134 135.64 20.6776C135.116 21.7419 134.853 22.81 134.853 23.882C134.853 24.5315 134.971 25.0675 135.206 25.49C135.448 25.9126 135.766 26.1239 136.157 26.1239C137.128 26.1239 138.139 25.5487 139.188 24.3985C140.238 23.2482 140.763 21.957 140.763 20.5251C140.763 19.7191 140.59 19.0579 140.246 18.5414C139.909 18.0171 139.435 17.755 138.824 17.755C138.245 17.755 137.724 17.9545 137.262 18.3536H137.25Z" fill="#313158"/>
<path d="M148.751 22.1918L148.951 21.8162C149.899 19.9147 150.917 18.3732 152.006 17.1916C153.102 16.0022 154.171 15.4075 155.213 15.4075C156.012 15.4075 156.662 15.6266 157.163 16.0648C157.672 16.503 157.927 17.0234 157.927 17.6259C157.927 18.0015 157.84 18.3262 157.668 18.6001C157.496 18.8661 157.257 18.9992 156.952 18.9992C156.466 18.9992 156.023 18.7996 155.624 18.4006C155.342 18.1423 155.119 18.0132 154.954 18.0132C154.367 18.0132 153.384 18.9248 152.006 20.7481C150.627 22.5713 149.797 24.6215 149.515 26.8986C149.429 27.5559 149.237 28.0136 148.939 28.2718C148.642 28.5379 148.238 28.6709 147.729 28.6709C147.189 28.6709 146.805 28.3657 146.578 27.7554C146.351 27.1372 146.237 26.1317 146.237 24.7388C146.237 24.1676 146.253 23.3968 146.284 22.4265C146.316 21.511 146.406 20.392 146.554 19.0696C146.594 18.7253 146.621 18.4553 146.637 18.2597C146.707 17.4929 146.785 16.9686 146.872 16.6869C146.966 16.3973 147.177 16.1274 147.506 15.877C147.835 15.6266 148.199 15.5014 148.599 15.5014C149.021 15.5014 149.343 15.6227 149.562 15.8652C149.781 16.1078 149.891 16.3739 149.891 16.6634C149.891 17.0312 149.715 17.7941 149.362 18.9522C149.237 19.3513 149.131 19.8286 149.045 20.3842L148.751 22.1918Z" fill="#313158"/>
<path d="M169.287 18.2128H169.299C169.299 18.2128 169.291 18.2206 169.275 18.2362C168.821 18.4866 168.453 18.7057 168.171 18.8935C167.646 19.2457 167.118 19.6252 166.585 20.0321C165.974 20.5016 165.516 20.8967 165.21 21.2176C164.952 21.4836 164.823 21.6793 164.823 21.8045C164.823 21.9453 165.281 22.497 166.197 23.4594C167.114 24.4141 167.838 25.0988 168.371 25.5135C168.911 25.9282 169.444 26.1356 169.968 26.1356L170.485 26.1239C170.673 26.1239 170.822 26.1826 170.932 26.2999C171.049 26.4095 171.108 26.5777 171.108 26.8047C171.108 27.1255 170.908 27.4972 170.509 27.9197C170.109 28.3423 169.424 28.5536 168.453 28.5536C167.881 28.5536 167.302 28.3462 166.714 27.9315C166.127 27.5089 165.226 26.5621 164.012 25.091C163.041 23.9094 162.512 23.3186 162.426 23.3186C162.371 23.3186 162.207 23.4594 161.933 23.7411C161.659 24.0229 161.478 24.238 161.392 24.3867V24.3985C161.259 25.0479 161.193 25.8969 161.193 26.9455C161.193 27.4698 161.036 27.8962 160.723 28.2249C160.417 28.5536 160.041 28.7179 159.595 28.7179C159.133 28.7179 158.772 28.5849 158.514 28.3188C158.256 28.0606 158.126 27.7984 158.126 27.5324C158.126 27.2507 158.224 26.6325 158.42 25.6778C158.796 23.8233 159.113 21.3623 159.372 18.2949C159.622 15.8457 159.842 13.9364 160.03 12.567C160.217 11.1898 160.386 10.2899 160.535 9.86735C160.684 9.43697 160.915 9.09658 161.228 8.84618C161.541 8.58796 161.878 8.45884 162.238 8.45884C162.583 8.45884 162.857 8.60361 163.061 8.89313C163.272 9.17484 163.378 9.51914 163.378 9.92604C163.378 10.4347 163.049 12.4222 162.391 15.8887L162.109 17.4263H162.121C161.776 19.6878 161.6 20.9946 161.592 21.3467L165.199 18.0836C167.039 16.3074 168.39 15.4192 169.252 15.4192C170.082 15.4192 170.497 15.7518 170.497 16.4169C170.497 17.2464 170.094 17.845 169.287 18.2128Z" fill="#313158"/>
<path d="M178.11 25.0323C178.079 24.6097 177.405 24.0933 176.089 23.4829C174.476 22.7082 173.446 22.0431 172.999 21.4875C172.553 20.9241 172.33 20.3138 172.33 19.6565C172.33 18.2714 173.105 17.0625 174.656 16.0296C176.215 14.9888 177.667 14.4685 179.015 14.4685C180.338 14.4685 181 15.0436 181 16.1939C181 16.4991 180.847 16.773 180.542 17.0155C180.244 17.2581 179.99 17.3794 179.778 17.3794C179.692 17.3794 179.539 17.3246 179.32 17.2151C179.101 17.1055 178.932 17.0507 178.815 17.0507C178.118 17.0507 177.35 17.2855 176.512 17.755C175.674 18.2245 175.255 18.7722 175.255 19.3983C175.255 19.7034 175.404 20.0008 175.702 20.2903C175.999 20.572 176.606 20.928 177.523 21.3584C178.878 22.0001 179.77 22.5791 180.201 23.0956C180.632 23.612 180.847 24.1833 180.847 24.8093C180.847 25.9517 180.072 26.9064 178.521 27.6732C176.978 28.4323 175.243 28.8118 173.317 28.8118C171.899 28.8118 171.19 28.2992 171.19 27.2742C171.19 26.8986 171.339 26.5777 171.637 26.3117C171.934 26.0456 172.267 25.9126 172.635 25.9126C172.784 25.9126 173.015 25.9674 173.328 26.0769C173.642 26.1943 173.932 26.253 174.198 26.253C174.934 26.253 175.705 26.1356 176.512 25.9009C177.319 25.6661 177.851 25.3766 178.11 25.0323Z" fill="#313158"/>
<path d="M39.0945 19.0293C38.477 18.8004 37.7779 18.9833 37.3565 19.4937C34.9932 22.3732 31.5068 24.0267 27.7847 24.0267C20.9606 24.0267 15.4137 18.4808 15.4137 11.6655C15.4137 8.23487 16.7975 5.04099 19.3149 2.67452C19.7967 2.21807 19.935 1.51036 19.6624 0.907894C19.3899 0.308056 18.7645 -0.060266 18.1036 0.00813663C7.78124 1.00918 0 9.58582 0 19.9554C0 31.0077 9.00043 40 20.0627 40C30.9946 40 39.7976 31.4418 40.1004 20.5158C40.1188 19.8554 39.7146 19.2582 39.0945 19.0293Z" fill="#F8E55B"/>
</svg>
