<svg width="746" height="160" viewBox="0 0 746 160" fill="none" xmlns="http://www.w3.org/2000/svg">
<path d="M97.8919 148.046C96.127 146.281 94.8033 144.415 93.9208 142.446C92.9704 140.545 92.4274 138.441 92.2916 136.133C92.1558 133.825 92.2237 131.178 92.4953 128.191C92.9025 124.932 93.6493 121.538 94.7354 118.008C95.8894 114.546 97.2131 111.05 98.7065 107.521C100.268 103.923 101.897 100.393 103.594 96.931C105.359 93.4011 107.022 89.973 108.583 86.6468C110.145 83.3206 111.468 80.1641 112.554 77.1772C113.708 74.1225 114.455 71.3394 114.795 68.8277L118.766 76.6681C114.625 77.0075 110.314 77.7203 105.834 78.8064C101.354 79.8925 96.7379 81.318 91.9861 83.083C87.2344 84.8479 82.3469 86.9523 77.3236 89.396C72.3682 91.9077 67.3109 94.7248 62.1519 97.8474C59.233 99.5444 56.5177 100.291 54.006 100.087C51.5623 99.816 49.0506 98.3904 46.4711 95.8109C45.5886 94.9284 44.7401 93.6726 43.9255 92.0434C43.1788 90.4822 42.8733 88.4117 43.0091 85.8322C43.1449 83.2527 44.0273 80.0622 45.6565 76.2608C47.7609 71.4412 50.0349 66.5876 52.4787 61.7001C54.9224 56.8126 57.502 51.9929 60.2172 47.2412C63.0004 42.4215 65.8515 37.7376 68.7704 33.1895C71.8251 28.6414 74.9816 24.1951 78.24 19.8507C81.4983 15.5062 84.8246 11.3654 88.2187 7.42821C90.3909 4.98445 92.9025 3.62681 95.7536 3.35528C98.7404 3.08375 101.931 4.64505 105.325 8.03916C108.855 11.569 110.382 15.4044 109.907 19.5452C109.5 23.6181 107.837 27.3177 104.918 30.6439C101.999 33.9702 99.3514 37.0928 96.9755 40.0117C94.6675 42.8628 92.4953 45.6459 90.4588 48.3612C88.5581 51.0765 86.6574 53.9276 84.7567 56.9144C82.9917 59.9012 81.091 63.2274 79.0546 66.8931L73.8616 64.5511C79.4958 61.4964 84.9943 58.9169 90.357 56.8126C95.7197 54.7082 101.048 53.0451 106.343 51.8232C111.706 50.6692 116.967 49.9564 122.126 49.6849C125.927 49.4134 129.389 49.6849 132.512 50.4995C135.77 51.3141 138.859 53.1809 141.778 56.0998C143.814 58.1363 145.036 60.5121 145.443 63.2274C145.919 66.0106 145.477 69.6423 144.12 74.1225C143.169 77.2451 141.642 80.6732 139.538 84.4067C137.569 88.1402 135.431 92.1113 133.123 96.32C130.883 100.461 128.812 104.636 126.912 108.844C125.079 112.985 123.857 117.058 123.246 121.063L116.526 114.954C119.988 113.257 123.517 111.22 127.115 108.844C130.781 106.401 134.446 103.821 138.112 101.106C141.778 98.3904 145.342 95.777 148.804 93.2653C152.266 90.7537 155.456 88.5136 158.375 86.545C161.294 84.5764 163.84 83.1848 166.012 82.3702C169.338 80.9447 172.291 80.4356 174.87 80.8429C177.45 81.2502 179.86 82.5739 182.1 84.814C185.155 87.8687 186.648 90.9234 186.58 93.9781C186.58 96.9649 185.494 99.7481 183.322 102.328C181.217 104.975 178.502 107.215 175.176 109.048C171.442 111.152 167.505 113.596 163.364 116.379C159.224 119.162 154.913 122.115 150.433 125.238C146.088 128.36 141.642 131.449 137.094 134.504C132.614 137.491 128.099 140.308 123.551 142.955C119.071 145.535 114.693 147.741 110.416 149.574C107.361 150.863 104.816 151.237 102.779 150.694C100.811 150.219 99.1817 149.336 97.8919 148.046Z" fill="url(#paint0_linear_31_3)"/>
<path d="M246.976 114.864C242.624 114.864 238.72 114.096 235.264 112.56C231.808 110.96 229.056 108.816 227.008 106.128C225.024 103.44 223.936 100.464 223.744 97.2H237.28C237.536 99.248 238.528 100.944 240.256 102.288C242.048 103.632 244.256 104.304 246.88 104.304C249.44 104.304 251.424 103.792 252.832 102.768C254.304 101.744 255.04 100.432 255.04 98.832C255.04 97.104 254.144 95.824 252.352 94.992C250.624 94.096 247.84 93.136 244 92.112C240.032 91.152 236.768 90.16 234.208 89.136C231.712 88.112 229.536 86.544 227.68 84.432C225.888 82.32 224.992 79.472 224.992 75.888C224.992 72.944 225.824 70.256 227.488 67.824C229.216 65.392 231.648 63.472 234.784 62.064C237.984 60.656 241.728 59.952 246.016 59.952C252.352 59.952 257.408 61.552 261.184 64.752C264.96 67.888 267.04 72.144 267.424 77.52H254.56C254.368 75.408 253.472 73.744 251.872 72.528C250.336 71.248 248.256 70.608 245.632 70.608C243.2 70.608 241.312 71.056 239.968 71.952C238.688 72.848 238.048 74.096 238.048 75.696C238.048 77.488 238.944 78.864 240.736 79.824C242.528 80.72 245.312 81.648 249.088 82.608C252.928 83.568 256.096 84.56 258.592 85.584C261.088 86.608 263.232 88.208 265.024 90.384C266.88 92.496 267.84 95.312 267.904 98.832C267.904 101.904 267.04 104.656 265.312 107.088C263.648 109.52 261.216 111.44 258.016 112.848C254.88 114.192 251.2 114.864 246.976 114.864ZM328.377 86.256C328.377 88.176 328.249 89.904 327.993 91.44H289.113C289.433 95.28 290.777 98.288 293.145 100.464C295.513 102.64 298.425 103.728 301.881 103.728C306.873 103.728 310.425 101.584 312.537 97.296H327.033C325.497 102.416 322.553 106.64 318.201 109.968C313.849 113.232 308.505 114.864 302.169 114.864C297.049 114.864 292.441 113.744 288.345 111.504C284.313 109.2 281.145 105.968 278.841 101.808C276.601 97.648 275.48 92.848 275.48 87.408C275.48 81.904 276.601 77.072 278.841 72.912C281.081 68.752 284.217 65.552 288.249 63.312C292.281 61.072 296.921 59.952 302.169 59.952C307.225 59.952 311.737 61.04 315.705 63.216C319.737 65.392 322.841 68.496 325.017 72.528C327.257 76.496 328.377 81.072 328.377 86.256ZM314.457 82.416C314.393 78.96 313.145 76.208 310.713 74.16C308.281 72.048 305.305 70.992 301.785 70.992C298.457 70.992 295.641 72.016 293.337 74.064C291.097 76.048 289.721 78.832 289.209 82.416H314.457ZM351.627 69.072C353.355 66.256 355.595 64.048 358.347 62.448C361.163 60.848 364.363 60.048 367.947 60.048V74.16H364.395C360.171 74.16 356.971 75.152 354.795 77.136C352.683 79.12 351.627 82.576 351.627 87.504V114H338.187V60.816H351.627V69.072ZM383.815 54.48C381.447 54.48 379.463 53.744 377.863 52.272C376.327 50.736 375.559 48.848 375.559 46.608C375.559 44.368 376.327 42.512 377.863 41.04C379.463 39.504 381.447 38.736 383.815 38.736C386.183 38.736 388.135 39.504 389.671 41.04C391.271 42.512 392.071 44.368 392.071 46.608C392.071 48.848 391.271 50.736 389.671 52.272C388.135 53.744 386.183 54.48 383.815 54.48ZM390.439 60.816V114H376.999V60.816H390.439ZM453.158 86.256C453.158 88.176 453.03 89.904 452.774 91.44H413.894C414.214 95.28 415.558 98.288 417.926 100.464C420.294 102.64 423.206 103.728 426.662 103.728C431.654 103.728 435.206 101.584 437.318 97.296H451.814C450.278 102.416 447.334 106.64 442.982 109.968C438.63 113.232 433.286 114.864 426.95 114.864C421.83 114.864 417.222 113.744 413.126 111.504C409.094 109.2 405.926 105.968 403.622 101.808C401.382 97.648 400.262 92.848 400.262 87.408C400.262 81.904 401.382 77.072 403.622 72.912C405.862 68.752 408.998 65.552 413.03 63.312C417.062 61.072 421.702 59.952 426.95 59.952C432.006 59.952 436.518 61.04 440.486 63.216C444.518 65.392 447.622 68.496 449.798 72.528C452.038 76.496 453.158 81.072 453.158 86.256ZM439.238 82.416C439.174 78.96 437.926 76.208 435.494 74.16C433.062 72.048 430.086 70.992 426.566 70.992C423.238 70.992 420.422 72.016 418.118 74.064C415.878 76.048 414.502 78.832 413.99 82.416H439.238ZM437.222 46.8L415.142 56.88V47.28L437.222 35.856V46.8ZM536.696 60.816L521.144 114H506.648L496.952 76.848L487.256 114H472.664L457.016 60.816H470.648L480.056 101.328L490.232 60.816H504.44L514.424 101.232L523.832 60.816H536.696ZM567.584 114.864C562.464 114.864 557.856 113.744 553.76 111.504C549.664 109.2 546.432 105.968 544.064 101.808C541.76 97.648 540.608 92.848 540.608 87.408C540.608 81.968 541.792 77.168 544.16 73.008C546.592 68.848 549.888 65.648 554.048 63.408C558.208 61.104 562.848 59.952 567.968 59.952C573.088 59.952 577.728 61.104 581.888 63.408C586.048 65.648 589.312 68.848 591.68 73.008C594.112 77.168 595.328 81.968 595.328 87.408C595.328 92.848 594.08 97.648 591.584 101.808C589.152 105.968 585.824 109.2 581.6 111.504C577.44 113.744 572.768 114.864 567.584 114.864ZM567.584 103.152C570.016 103.152 572.288 102.576 574.4 101.424C576.576 100.208 578.304 98.416 579.584 96.048C580.864 93.68 581.504 90.8 581.504 87.408C581.504 82.352 580.16 78.48 577.472 75.792C574.848 73.04 571.616 71.664 567.776 71.664C563.936 71.664 560.704 73.04 558.08 75.792C555.52 78.48 554.24 82.352 554.24 87.408C554.24 92.464 555.488 96.368 557.984 99.12C560.544 101.808 563.744 103.152 567.584 103.152ZM618.627 69.072C620.355 66.256 622.595 64.048 625.347 62.448C628.163 60.848 631.363 60.048 634.947 60.048V74.16H631.395C627.171 74.16 623.971 75.152 621.795 77.136C619.683 79.12 618.627 82.576 618.627 87.504V114H605.187V60.816H618.627V69.072ZM675.487 114L657.439 91.344V114H643.999V42.96H657.439V83.376L675.295 60.816H692.767L669.343 87.504L692.959 114H675.487ZM720.414 114.864C716.062 114.864 712.158 114.096 708.702 112.56C705.246 110.96 702.494 108.816 700.446 106.128C698.462 103.44 697.374 100.464 697.182 97.2H710.718C710.974 99.248 711.966 100.944 713.694 102.288C715.486 103.632 717.694 104.304 720.318 104.304C722.878 104.304 724.862 103.792 726.27 102.768C727.742 101.744 728.478 100.432 728.478 98.832C728.478 97.104 727.582 95.824 725.79 94.992C724.062 94.096 721.278 93.136 717.438 92.112C713.47 91.152 710.206 90.16 707.646 89.136C705.15 88.112 702.974 86.544 701.118 84.432C699.326 82.32 698.43 79.472 698.43 75.888C698.43 72.944 699.262 70.256 700.926 67.824C702.654 65.392 705.086 63.472 708.222 62.064C711.422 60.656 715.166 59.952 719.454 59.952C725.79 59.952 730.846 61.552 734.622 64.752C738.398 67.888 740.478 72.144 740.862 77.52H727.998C727.806 75.408 726.91 73.744 725.31 72.528C723.774 71.248 721.694 70.608 719.07 70.608C716.638 70.608 714.75 71.056 713.406 71.952C712.126 72.848 711.486 74.096 711.486 75.696C711.486 77.488 712.382 78.864 714.174 79.824C715.966 80.72 718.75 81.648 722.526 82.608C726.366 83.568 729.534 84.56 732.03 85.584C734.526 86.608 736.67 88.208 738.462 90.384C740.318 92.496 741.278 95.312 741.342 98.832C741.342 101.904 740.478 104.656 738.75 107.088C737.086 109.52 734.654 111.44 731.454 112.848C728.318 114.192 724.638 114.864 720.414 114.864Z" fill="#131A22"/>
<defs>
<linearGradient id="paint0_linear_31_3" x1="55.8615" y1="32.8614" x2="158.392" y2="135.392" gradientUnits="userSpaceOnUse">
<stop stop-color="#FF75C3"/>
<stop offset="0.2" stop-color="#FFA647"/>
<stop offset="0.4" stop-color="#FFE83F"/>
<stop offset="0.6" stop-color="#9FFF5B"/>
<stop offset="0.8" stop-color="#70E2FF"/>
<stop offset="1" stop-color="#CD93FF"/>
</linearGradient>
</defs>
</svg>
