<svg width="800" height="160" viewBox="0 0 800 160" fill="none" xmlns="http://www.w3.org/2000/svg">
<g clip-path="url(#clip0_3_2)">
<rect width="800" height="160" fill="#131A22"/>
<path d="M103.892 148.046C102.127 146.281 100.803 144.415 99.9208 142.446C98.9704 140.545 98.4273 138.441 98.2916 136.133C98.1558 133.825 98.2237 131.178 98.4952 128.191C98.9025 124.932 99.6492 121.538 100.735 118.008C101.889 114.546 103.213 111.05 104.706 107.521C106.268 103.923 107.897 100.393 109.594 96.931C111.359 93.4011 113.022 89.973 114.583 86.6468C116.145 83.3206 117.468 80.1641 118.554 77.1772C119.708 74.1225 120.455 71.3394 120.795 68.8277L124.766 76.6681C120.625 77.0075 116.314 77.7203 111.834 78.8064C107.354 79.8925 102.738 81.318 97.9861 83.083C93.2344 84.8479 88.3468 86.9523 83.3235 89.396C78.3681 91.9077 73.3109 94.7248 68.1519 97.8474C65.2329 99.5444 62.5176 100.291 60.006 100.087C57.5622 99.816 55.0506 98.3904 52.4711 95.8109C51.5886 94.9284 50.7401 93.6726 49.9255 92.0434C49.1788 90.4822 48.8733 88.4117 49.0091 85.8322C49.1448 83.2527 50.0273 80.0622 51.6565 76.2608C53.7608 71.4412 56.0349 66.5876 58.4786 61.7001C60.9224 56.8126 63.5019 51.9929 66.2172 47.2412C69.0004 42.4215 71.8514 37.7376 74.7704 33.1895C77.8251 28.6414 80.9816 24.1951 84.24 19.8507C87.4983 15.5062 90.8245 11.3654 94.2186 7.42821C96.3909 4.98445 98.9025 3.62681 101.754 3.35528C104.74 3.08375 107.931 4.64505 111.325 8.03916C114.855 11.569 116.382 15.4044 115.907 19.5452C115.5 23.6181 113.837 27.3177 110.918 30.6439C107.999 33.9702 105.351 37.0928 102.975 40.0117C100.667 42.8628 98.4952 45.6459 96.4588 48.3612C94.5581 51.0765 92.6574 53.9276 90.7567 56.9144C88.9917 59.9012 87.091 63.2274 85.0545 66.8931L79.8615 64.5511C85.4958 61.4964 90.9942 58.9169 96.3569 56.8126C101.72 54.7082 107.048 53.0451 112.343 51.8232C117.706 50.6692 122.967 49.9564 128.126 49.6849C131.927 49.4134 135.389 49.6849 138.512 50.4995C141.77 51.3141 144.859 53.1809 147.778 56.0998C149.814 58.1363 151.036 60.5121 151.443 63.2274C151.919 66.0106 151.477 69.6423 150.12 74.1225C149.169 77.2451 147.642 80.6732 145.538 84.4067C143.569 88.1402 141.431 92.1113 139.123 96.32C136.883 100.461 134.812 104.636 132.912 108.844C131.079 112.985 129.857 117.058 129.246 121.063L122.526 114.954C125.988 113.257 129.517 111.22 133.115 108.844C136.781 106.401 140.446 103.821 144.112 101.106C147.778 98.3904 151.342 95.777 154.804 93.2653C158.266 90.7537 161.456 88.5136 164.375 86.545C167.294 84.5764 169.839 83.1848 172.012 82.3702C175.338 80.9447 178.291 80.4356 180.87 80.8429C183.45 81.2502 185.86 82.5739 188.1 84.814C191.154 87.8687 192.648 90.9234 192.58 93.9781C192.58 96.9649 191.494 99.7481 189.322 102.328C187.217 104.975 184.502 107.215 181.176 109.048C177.442 111.152 173.505 113.596 169.364 116.379C165.223 119.162 160.913 122.115 156.433 125.238C152.088 128.36 147.642 131.449 143.094 134.504C138.614 137.491 134.099 140.308 129.551 142.955C125.071 145.535 120.693 147.741 116.416 149.574C113.361 150.863 110.816 151.237 108.779 150.694C106.811 150.219 105.182 149.336 103.892 148.046Z" fill="url(#paint0_linear_3_2)"/>
<path d="M252.976 114.864C248.624 114.864 244.72 114.096 241.264 112.56C237.808 110.96 235.056 108.816 233.008 106.128C231.024 103.44 229.936 100.464 229.744 97.2H243.28C243.536 99.248 244.528 100.944 246.256 102.288C248.048 103.632 250.256 104.304 252.88 104.304C255.44 104.304 257.424 103.792 258.832 102.768C260.304 101.744 261.04 100.432 261.04 98.832C261.04 97.104 260.144 95.824 258.352 94.992C256.624 94.096 253.84 93.136 250 92.112C246.032 91.152 242.768 90.16 240.208 89.136C237.712 88.112 235.536 86.544 233.68 84.432C231.888 82.32 230.992 79.472 230.992 75.888C230.992 72.944 231.824 70.256 233.488 67.824C235.216 65.392 237.648 63.472 240.784 62.064C243.984 60.656 247.728 59.952 252.016 59.952C258.352 59.952 263.408 61.552 267.184 64.752C270.96 67.888 273.04 72.144 273.424 77.52H260.56C260.368 75.408 259.472 73.744 257.872 72.528C256.336 71.248 254.256 70.608 251.632 70.608C249.2 70.608 247.312 71.056 245.968 71.952C244.688 72.848 244.048 74.096 244.048 75.696C244.048 77.488 244.944 78.864 246.736 79.824C248.528 80.72 251.312 81.648 255.088 82.608C258.928 83.568 262.096 84.56 264.592 85.584C267.088 86.608 269.232 88.208 271.024 90.384C272.88 92.496 273.84 95.312 273.904 98.832C273.904 101.904 273.04 104.656 271.312 107.088C269.648 109.52 267.216 111.44 264.016 112.848C260.88 114.192 257.2 114.864 252.976 114.864ZM334.377 86.256C334.377 88.176 334.249 89.904 333.993 91.44H295.113C295.433 95.28 296.777 98.288 299.145 100.464C301.513 102.64 304.425 103.728 307.881 103.728C312.873 103.728 316.425 101.584 318.537 97.296H333.033C331.497 102.416 328.553 106.64 324.201 109.968C319.849 113.232 314.505 114.864 308.169 114.864C303.049 114.864 298.441 113.744 294.345 111.504C290.313 109.2 287.145 105.968 284.841 101.808C282.601 97.648 281.48 92.848 281.48 87.408C281.48 81.904 282.601 77.072 284.841 72.912C287.081 68.752 290.217 65.552 294.249 63.312C298.281 61.072 302.921 59.952 308.169 59.952C313.225 59.952 317.737 61.04 321.705 63.216C325.737 65.392 328.841 68.496 331.017 72.528C333.257 76.496 334.377 81.072 334.377 86.256ZM320.457 82.416C320.393 78.96 319.145 76.208 316.713 74.16C314.281 72.048 311.305 70.992 307.785 70.992C304.457 70.992 301.641 72.016 299.337 74.064C297.097 76.048 295.721 78.832 295.209 82.416H320.457ZM357.627 69.072C359.355 66.256 361.595 64.048 364.347 62.448C367.163 60.848 370.363 60.048 373.947 60.048V74.16H370.395C366.171 74.16 362.971 75.152 360.795 77.136C358.683 79.12 357.627 82.576 357.627 87.504V114H344.187V60.816H357.627V69.072ZM389.815 54.48C387.447 54.48 385.463 53.744 383.863 52.272C382.327 50.736 381.559 48.848 381.559 46.608C381.559 44.368 382.327 42.512 383.863 41.04C385.463 39.504 387.447 38.736 389.815 38.736C392.183 38.736 394.135 39.504 395.671 41.04C397.271 42.512 398.071 44.368 398.071 46.608C398.071 48.848 397.271 50.736 395.671 52.272C394.135 53.744 392.183 54.48 389.815 54.48ZM396.439 60.816V114H382.999V60.816H396.439ZM459.158 86.256C459.158 88.176 459.03 89.904 458.774 91.44H419.894C420.214 95.28 421.558 98.288 423.926 100.464C426.294 102.64 429.206 103.728 432.662 103.728C437.654 103.728 441.206 101.584 443.318 97.296H457.814C456.278 102.416 453.334 106.64 448.982 109.968C444.63 113.232 439.286 114.864 432.95 114.864C427.83 114.864 423.222 113.744 419.126 111.504C415.094 109.2 411.926 105.968 409.622 101.808C407.382 97.648 406.262 92.848 406.262 87.408C406.262 81.904 407.382 77.072 409.622 72.912C411.862 68.752 414.998 65.552 419.03 63.312C423.062 61.072 427.702 59.952 432.95 59.952C438.006 59.952 442.518 61.04 446.486 63.216C450.518 65.392 453.622 68.496 455.798 72.528C458.038 76.496 459.158 81.072 459.158 86.256ZM445.238 82.416C445.174 78.96 443.926 76.208 441.494 74.16C439.062 72.048 436.086 70.992 432.566 70.992C429.238 70.992 426.422 72.016 424.118 74.064C421.878 76.048 420.502 78.832 419.99 82.416H445.238ZM443.222 46.8L421.142 56.88V47.28L443.222 35.856V46.8ZM542.696 60.816L527.144 114H512.648L502.952 76.848L493.256 114H478.664L463.016 60.816H476.648L486.056 101.328L496.232 60.816H510.44L520.424 101.232L529.832 60.816H542.696ZM573.584 114.864C568.464 114.864 563.856 113.744 559.76 111.504C555.664 109.2 552.432 105.968 550.064 101.808C547.76 97.648 546.608 92.848 546.608 87.408C546.608 81.968 547.792 77.168 550.16 73.008C552.592 68.848 555.888 65.648 560.048 63.408C564.208 61.104 568.848 59.952 573.968 59.952C579.088 59.952 583.728 61.104 587.888 63.408C592.048 65.648 595.312 68.848 597.68 73.008C600.112 77.168 601.328 81.968 601.328 87.408C601.328 92.848 600.08 97.648 597.584 101.808C595.152 105.968 591.824 109.2 587.6 111.504C583.44 113.744 578.768 114.864 573.584 114.864ZM573.584 103.152C576.016 103.152 578.288 102.576 580.4 101.424C582.576 100.208 584.304 98.416 585.584 96.048C586.864 93.68 587.504 90.8 587.504 87.408C587.504 82.352 586.16 78.48 583.472 75.792C580.848 73.04 577.616 71.664 573.776 71.664C569.936 71.664 566.704 73.04 564.08 75.792C561.52 78.48 560.24 82.352 560.24 87.408C560.24 92.464 561.488 96.368 563.984 99.12C566.544 101.808 569.744 103.152 573.584 103.152ZM624.627 69.072C626.355 66.256 628.595 64.048 631.347 62.448C634.163 60.848 637.363 60.048 640.947 60.048V74.16H637.395C633.171 74.16 629.971 75.152 627.795 77.136C625.683 79.12 624.627 82.576 624.627 87.504V114H611.187V60.816H624.627V69.072ZM681.487 114L663.439 91.344V114H649.999V42.96H663.439V83.376L681.295 60.816H698.767L675.343 87.504L698.959 114H681.487ZM726.414 114.864C722.062 114.864 718.158 114.096 714.702 112.56C711.246 110.96 708.494 108.816 706.446 106.128C704.462 103.44 703.374 100.464 703.182 97.2H716.718C716.974 99.248 717.966 100.944 719.694 102.288C721.486 103.632 723.694 104.304 726.318 104.304C728.878 104.304 730.862 103.792 732.27 102.768C733.742 101.744 734.478 100.432 734.478 98.832C734.478 97.104 733.582 95.824 731.79 94.992C730.062 94.096 727.278 93.136 723.438 92.112C719.47 91.152 716.206 90.16 713.646 89.136C711.15 88.112 708.974 86.544 707.118 84.432C705.326 82.32 704.43 79.472 704.43 75.888C704.43 72.944 705.262 70.256 706.926 67.824C708.654 65.392 711.086 63.472 714.222 62.064C717.422 60.656 721.166 59.952 725.454 59.952C731.79 59.952 736.846 61.552 740.622 64.752C744.398 67.888 746.478 72.144 746.862 77.52H733.998C733.806 75.408 732.91 73.744 731.31 72.528C729.774 71.248 727.694 70.608 725.07 70.608C722.638 70.608 720.75 71.056 719.406 71.952C718.126 72.848 717.486 74.096 717.486 75.696C717.486 77.488 718.382 78.864 720.174 79.824C721.966 80.72 724.75 81.648 728.526 82.608C732.366 83.568 735.534 84.56 738.03 85.584C740.526 86.608 742.67 88.208 744.462 90.384C746.318 92.496 747.278 95.312 747.342 98.832C747.342 101.904 746.478 104.656 744.75 107.088C743.086 109.52 740.654 111.44 737.454 112.848C734.318 114.192 730.638 114.864 726.414 114.864Z" fill="#DDDDDD"/>
</g>
<defs>
<linearGradient id="paint0_linear_3_2" x1="61.8614" y1="32.8614" x2="164.392" y2="135.392" gradientUnits="userSpaceOnUse">
<stop stop-color="#FF75C3"/>
<stop offset="0.2" stop-color="#FFA647"/>
<stop offset="0.4" stop-color="#FFE83F"/>
<stop offset="0.6" stop-color="#9FFF5B"/>
<stop offset="0.8" stop-color="#70E2FF"/>
<stop offset="1" stop-color="#CD93FF"/>
</linearGradient>
<clipPath id="clip0_3_2">
<rect width="800" height="160" fill="white"/>
</clipPath>
</defs>
</svg>
